<svg width="239" height="33" viewBox="0 0 239 33" fill="none" xmlns="http://www.w3.org/2000/svg">
<path d="M7.15309 31.5722H1.19207e-05L10.8992 1.29307e-05H19.5014L30.3852 31.5722H23.2321L15.3236 7.21475H15.077L7.15309 31.5722ZM6.70602 19.1622H23.6021V24.3729H6.70602V19.1622ZM49.2468 21.4901V7.89306H55.814V31.5722H49.5088V27.2711H49.2622C48.7278 28.6586 47.8388 29.7737 46.5952 30.6164C45.3619 31.4592 43.8563 31.8805 42.0783 31.8805C40.4956 31.8805 39.103 31.5208 37.9005 30.8014C36.6981 30.082 35.7577 29.0594 35.0794 27.7336C34.4113 26.4078 34.0722 24.8199 34.0619 22.97V7.89306H40.6292V21.7984C40.6394 23.1961 41.0146 24.3009 41.7545 25.1129C42.4945 25.9248 43.4863 26.3307 44.7299 26.3307C45.5212 26.3307 46.2612 26.1509 46.9498 25.7912C47.6384 25.4212 48.1933 24.8765 48.6147 24.1571C49.0464 23.4376 49.257 22.5486 49.2468 21.4901ZM73.662 7.89306V12.8262H59.4021V7.89306H73.662ZM62.6395 2.21993H69.2068V24.2958C69.2068 24.9022 69.2993 25.3749 69.4843 25.7141C69.6693 26.043 69.9262 26.2742 70.2551 26.4078C70.5942 26.5414 70.9848 26.6082 71.4267 26.6082C71.735 26.6082 72.0433 26.5825 72.3517 26.5311C72.66 26.4695 72.8964 26.4232 73.0608 26.3924L74.0937 31.2793C73.7648 31.3821 73.3023 31.5003 72.7062 31.6339C72.1101 31.7778 71.3856 31.8651 70.5326 31.8959C68.9498 31.9576 67.5624 31.7469 66.3702 31.2639C65.1883 30.7808 64.2685 30.0306 63.6107 29.0131C62.953 27.9957 62.6292 26.711 62.6395 25.1591V2.21993ZM88.3844 32.0347C85.9898 32.0347 83.9189 31.526 82.1717 30.5085C80.4348 29.4808 79.0936 28.0522 78.1481 26.2228C77.2026 24.3832 76.7298 22.2506 76.7298 19.8251C76.7298 17.3791 77.2026 15.2414 78.1481 13.412C79.0936 11.5724 80.4348 10.1438 82.1717 9.12635C83.9189 8.09861 85.9898 7.58474 88.3844 7.58474C90.779 7.58474 92.8448 8.09861 94.5817 9.12635C96.3288 10.1438 97.6752 11.5724 98.6207 13.412C99.5662 15.2414 100.039 17.3791 100.039 19.8251C100.039 22.2506 99.5662 24.3832 98.6207 26.2228C97.6752 28.0522 96.3288 29.4808 94.5817 30.5085C92.8448 31.526 90.779 32.0347 88.3844 32.0347ZM88.4152 26.9474C89.5047 26.9474 90.4142 26.639 91.1439 26.0224C91.8736 25.3955 92.4234 24.5425 92.7934 23.4633C93.1737 22.3842 93.3638 21.1561 93.3638 19.7789C93.3638 18.4017 93.1737 17.1736 92.7934 16.0944C92.4234 15.0153 91.8736 14.1623 91.1439 13.5354C90.4142 12.9084 89.5047 12.595 88.4152 12.595C87.3156 12.595 86.3906 12.9084 85.6403 13.5354C84.9004 14.1623 84.3403 15.0153 83.96 16.0944C83.59 17.1736 83.405 18.4017 83.405 19.7789C83.405 21.1561 83.59 22.3842 83.96 23.4633C84.3403 24.5425 84.9004 25.3955 85.6403 26.0224C86.3906 26.639 87.3156 26.9474 88.4152 26.9474ZM104.433 31.5722V1.29307e-05H111.108V13.0266H124.659V1.29307e-05H131.318V31.5722H124.659V18.5302H111.108V31.5722H104.433ZM147.49 32.0347C145.054 32.0347 142.957 31.5414 141.2 30.5547C139.453 29.5578 138.107 28.1498 137.161 26.3307C136.215 24.5013 135.743 22.338 135.743 19.8405C135.743 17.4048 136.215 15.2671 137.161 13.4274C138.107 11.5878 139.437 10.1541 141.154 9.12635C142.88 8.09861 144.905 7.58474 147.228 7.58474C148.79 7.58474 150.244 7.83654 151.59 8.34013C152.947 8.83344 154.129 9.57856 155.136 10.5755C156.154 11.5724 156.945 12.8262 157.51 14.337C158.076 15.8375 158.358 17.5949 158.358 19.6093V21.413H138.363V17.3431H152.176C152.176 16.3976 151.971 15.56 151.56 14.8303C151.149 14.1006 150.578 13.5302 149.848 13.1191C149.129 12.6977 148.291 12.4871 147.336 12.4871C146.339 12.4871 145.455 12.7183 144.684 13.1808C143.924 13.633 143.327 14.2445 142.896 15.0153C142.464 15.7758 142.243 16.6237 142.233 17.559V21.4284C142.233 22.6 142.449 23.6124 142.88 24.4654C143.322 25.3184 143.944 25.9762 144.746 26.4386C145.547 26.9011 146.498 27.1324 147.598 27.1324C148.327 27.1324 148.995 27.0296 149.602 26.824C150.208 26.6185 150.727 26.3102 151.159 25.8991C151.59 25.488 151.919 24.9844 152.145 24.3883L158.219 24.7891C157.911 26.2485 157.279 27.5229 156.323 28.6123C155.378 29.6914 154.155 30.5342 152.654 31.1406C151.164 31.7366 149.442 32.0347 147.49 32.0347ZM169.396 32.0193C167.885 32.0193 166.539 31.7572 165.357 31.2331C164.175 30.6986 163.24 29.9124 162.551 28.8744C161.873 27.8261 161.534 26.5209 161.534 24.9587C161.534 23.6432 161.775 22.5384 162.258 21.6442C162.741 20.7501 163.399 20.0307 164.232 19.486C165.064 18.9413 166.01 18.5302 167.068 18.2527C168.137 17.9752 169.257 17.7799 170.429 17.6669C171.806 17.523 172.916 17.3894 173.759 17.2661C174.602 17.1324 175.213 16.9372 175.593 16.6802C175.974 16.4233 176.164 16.043 176.164 15.5395V15.447C176.164 14.4706 175.855 13.7152 175.239 13.1808C174.632 12.6464 173.769 12.3791 172.649 12.3791C171.467 12.3791 170.527 12.6412 169.828 13.1654C169.129 13.6792 168.666 14.3267 168.44 15.1078L162.366 14.6145C162.675 13.1756 163.281 11.9321 164.185 10.8838C165.09 9.82521 166.256 9.0133 167.685 8.44804C169.124 7.87251 170.789 7.58474 172.68 7.58474C173.995 7.58474 175.254 7.7389 176.457 8.04722C177.669 8.35554 178.743 8.83344 179.679 9.48092C180.624 10.1284 181.369 10.9609 181.914 11.9783C182.459 12.9855 182.731 14.1931 182.731 15.6011V31.5722H176.503V28.2886H176.318C175.938 29.0285 175.429 29.6812 174.792 30.2464C174.155 30.8014 173.389 31.2382 172.495 31.5568C171.601 31.8651 170.568 32.0193 169.396 32.0193ZM171.277 27.4869C172.243 27.4869 173.096 27.2968 173.836 26.9165C174.576 26.526 175.157 26.0019 175.578 25.3441C175.999 24.6863 176.21 23.9412 176.21 23.1088V20.5959C176.004 20.7295 175.722 20.8529 175.362 20.9659C175.013 21.0687 174.617 21.1663 174.175 21.2588C173.733 21.341 173.291 21.4181 172.849 21.4901C172.407 21.5517 172.007 21.6083 171.647 21.6596C170.876 21.7727 170.203 21.9526 169.627 22.1992C169.052 22.4459 168.605 22.7799 168.286 23.2013C167.968 23.6124 167.808 24.1262 167.808 24.7429C167.808 25.637 168.132 26.3205 168.779 26.7932C169.437 27.2557 170.27 27.4869 171.277 27.4869ZM194.393 1.29307e-05V31.5722H187.826V1.29307e-05H194.393ZM212.249 7.89306V12.8262H197.989V7.89306H212.249ZM201.226 2.21993H207.794V24.2958C207.794 24.9022 207.886 25.3749 208.071 25.7141C208.256 26.043 208.513 26.2742 208.842 26.4078C209.181 26.5414 209.572 26.6082 210.014 26.6082C210.322 26.6082 210.63 26.5825 210.939 26.5311C211.247 26.4695 211.483 26.4232 211.648 26.3924L212.681 31.2793C212.352 31.3821 211.889 31.5003 211.293 31.6339C210.697 31.7778 209.973 31.8651 209.12 31.8959C207.537 31.9576 206.149 31.7469 204.957 31.2639C203.775 30.7808 202.855 30.0306 202.198 29.0131C201.54 27.9957 201.216 26.711 201.226 25.1591V2.21993ZM223.603 17.8827V31.5722H217.036V1.29307e-05H223.418V12.0708H223.695C224.23 10.6731 225.093 9.57856 226.285 8.78719C227.478 7.98556 228.973 7.58474 230.771 7.58474C232.416 7.58474 233.85 7.94445 235.073 8.66387C236.306 9.37301 237.262 10.3956 237.94 11.7317C238.629 13.0575 238.968 14.6453 238.957 16.4952V31.5722H232.39V17.6669C232.4 16.2075 232.03 15.0718 231.28 14.2599C230.54 13.448 229.502 13.042 228.166 13.042C227.272 13.042 226.481 13.2322 225.792 13.6124C225.114 13.9927 224.579 14.5477 224.189 15.2774C223.809 15.9968 223.613 16.8652 223.603 17.8827Z" fill="#0000FF"/>
</svg>
